<svg width="800" height="270" viewBox="0 0 800 270" fill="none" xmlns="http://www.w3.org/2000/svg">
<path d="M74.0345 1.24039C68.7148 3.2744 59.9529 14.2268 54.7896 25.0227C47.7488 40.0431 44.6195 53.3425 44.6195 68.6758C44.6195 79.7847 45.2454 83.3833 48.844 91.3629C51.191 96.3697 54.9461 102.628 57.293 105.132C62.6128 110.764 72.4699 115.302 79.1978 115.458C83.4223 115.458 84.2046 116.084 84.2046 119.37C84.2046 121.56 82.7964 126.723 81.2318 131.104C74.3475 149.098 60.4223 159.268 42.1161 159.268C29.1297 159.268 19.742 155.043 16.2998 147.689C12.0753 138.771 13.0141 133.295 20.2114 124.533C25.0617 118.9 26.9393 115.145 27.5651 109.982C28.191 103.723 27.878 102.785 24.5923 101.689C15.674 98.4037 4.5651 106.696 1.12292 118.9C0.184143 122.655 -0.285245 129.696 0.184143 134.703C2.53108 160.363 21.776 173.506 53.6944 171.315C71.2182 170.064 80.293 166.621 89.8373 156.921C99.8509 147.064 104.075 135.955 106.109 115.615C107.83 98.4037 108.143 32.5329 106.735 14.8526C105.64 2.96148 105.64 2.80501 100.79 2.17916C89.6808 0.458073 77.0073 -0.0113146 74.0345 1.24039ZM83.7352 23.4581C84.674 24.7098 84.9869 40.0431 84.5175 61.7914C83.8917 95.5874 83.5788 98.2473 80.9189 99.0296C75.7556 100.751 69.4971 96.3697 65.4291 88.0772C61.8304 81.0364 61.5175 78.3765 61.5175 61.4785C61.5175 41.1384 63.2386 33.7846 69.6536 26.2744C73.7216 21.2676 80.9189 19.8594 83.7352 23.4581ZM272.899 5.46488C272.429 6.71658 271.96 11.4105 271.96 15.7914C271.96 20.3288 271.49 28.6214 270.865 34.4105L269.926 45.0499H262.729C255.688 45.0499 244.266 47.2404 242.701 48.6486C242.388 49.118 242.701 50.8391 243.64 52.5601C245.205 55.3765 248.49 56.6282 265.388 60.0704L268.831 60.6962L268.518 97.9343C268.048 130.479 268.361 136.268 271.021 144.717C276.028 161.302 287.45 171.315 299.028 169.125C304.817 168.03 312.484 159.737 317.647 149.098C319.994 143.934 322.028 141.118 322.028 142.839C322.028 148.002 329.382 161.928 333.293 164.587C335.327 165.996 340.803 167.717 345.341 168.655C358.797 171.159 366.62 165.526 374.599 147.377L377.103 141.274L378.511 145.812C380.232 152.07 388.681 160.363 394.314 161.458C400.416 162.71 408.552 159.111 412.776 153.322L416.375 148.472L419.661 155.043C424.042 163.492 428.735 166.778 440.001 168.812C448.293 170.22 449.701 170.22 453.3 167.404C455.491 165.839 459.246 160.989 461.593 156.764L465.974 149.098V167.717L454.395 179.138C441.565 191.655 432.178 208.084 427.64 225.764C419.974 255.962 429.674 269.261 459.559 269.417C472.389 269.574 472.545 269.574 476.926 264.411C484.28 255.649 485.375 249.077 486.314 209.336L487.096 172.567H492.103C494.919 172.567 498.048 171.628 499.144 170.533C500.865 168.812 500.552 167.873 497.423 165.37C495.389 163.805 491.946 162.397 489.756 162.397H485.844L486.627 136.894C487.253 117.336 488.035 110.295 490.069 106.383L492.729 101.22L487.565 99.186L482.402 96.9956V82.9139C482.402 69.4581 482.089 68.5193 478.021 64.1384C475.674 61.635 470.667 58.8187 467.069 57.7234C463.47 56.7846 457.212 54.4377 453.144 52.5601C444.538 48.6486 440.001 49.4309 432.491 56.0023C421.851 65.3901 416.531 83.8527 414.497 117.805C413.246 139.553 410.899 147.22 404.953 149.098C400.572 150.506 397.599 147.689 395.565 140.649C393.531 132.982 393.531 115.302 395.878 106.54C397.599 99.6554 397.443 99.186 393.688 96.0568C390.089 93.084 389.62 91.3629 388.994 79.7847C388.055 63.3561 385.708 60.0704 371.157 54.1248C342.055 42.2336 327.504 55.3765 322.028 98.8731C321.246 105.601 319.837 112.016 319.055 112.955C318.273 113.894 316.395 119.526 315.144 125.315C312.014 138.458 307.633 147.533 302.314 150.819C298.558 153.322 298.246 153.322 295.273 150.349C290.579 145.655 289.171 130.948 290.11 98.2473C291.205 57.254 290.579 59.601 301.062 58.1928C305.912 57.7234 314.361 57.0976 319.837 57.0976C330.633 56.9411 332.198 55.5329 326.722 50.5261C324.218 48.3357 319.994 47.3969 308.259 46.771L293.082 45.8323L293.395 34.8799C293.552 28.7778 294.178 20.4853 294.647 16.4173C295.586 9.06352 295.429 8.90706 290.422 6.87304C281.661 3.43086 273.837 2.64855 272.899 5.46488ZM460.81 70.7098C464.878 74.3085 465.191 75.2472 465.035 86.0432C464.722 107.166 460.654 130.948 455.491 141.274C451.892 148.472 445.477 154.574 441.409 154.574C439.375 154.574 436.715 152.853 435.15 150.349C430.926 144.091 431.082 102.785 435.307 90.4241C439.375 78.22 443.756 71.6486 449.389 69.1452C455.803 66.3289 455.804 66.3289 460.81 70.7098ZM370.218 73.9955C374.443 79.4717 376.008 90.8935 373.035 95.4309C371.783 97.4649 370.062 106.54 369.123 115.771C366.776 136.737 363.647 147.689 358.014 153.322C351.443 159.737 345.967 159.268 342.837 151.757C336.735 137.519 339.239 96.3697 347.218 80.8799C352.851 69.771 364.273 66.3289 370.218 73.9955ZM464.409 231.71C461.593 249.86 454.865 259.247 446.259 257.213C438.123 255.179 435.62 240.472 440.157 222.635C443.599 209.649 451.892 192.594 459.089 184.302L465.191 177.417L465.661 199.166C465.817 211.213 465.348 225.921 464.409 231.71Z" fill="black"/>
<path d="M582.539 56.6275C574.559 64.92 569.865 77.4371 567.518 97.4643C565.328 116.24 559.069 140.961 554.689 148.941C552.029 153.791 550.308 155.355 547.335 155.355C541.076 155.355 539.042 146.75 539.981 123.281C540.607 109.043 541.702 100.594 544.362 92.1446L547.961 80.5663L544.518 77.75C542.328 76.0289 537.008 74.6207 530.437 73.9949C524.648 73.5255 518.859 72.8996 517.607 72.7432C516.042 72.4303 515.26 70.3962 515.26 66.1717C515.103 57.2534 513.539 55.5323 507.124 56.4711C497.58 58.0357 497.58 58.3486 498.362 84.6343C498.988 99.9677 498.518 112.641 497.267 120.151C494.45 136.736 494.607 137.988 497.736 138.614C501.961 139.553 506.029 128.287 509.314 106.07L512.287 86.5119H521.518L520.893 106.852C519.954 146.75 528.246 167.09 545.457 167.09C552.654 167.09 558.913 162.24 563.45 153.009L567.362 145.342L569.865 152.07C571.274 155.668 574.403 160.519 576.75 162.709C581.913 167.56 596.464 171.158 602.41 168.811C607.573 166.934 614.301 158.641 618.525 149.41L621.811 141.743L624.784 148.315C632.294 165.056 649.505 166.308 659.675 150.975L663.899 144.56L664.838 152.696C666.246 163.022 667.968 165.056 676.573 166.464C690.185 168.498 690.185 168.342 693.314 144.872C695.974 123.75 700.042 106.07 702.389 106.07C703.015 106.07 703.797 116.553 704.11 129.383C704.58 149.566 705.049 153.165 707.553 155.981C713.655 162.709 728.831 161.614 728.831 154.417C728.831 148.941 735.09 126.253 740.253 113.111L745.26 100.594L746.042 122.498C746.668 141.9 747.294 145.342 750.736 152.07C752.927 156.451 756.525 161.301 758.872 163.022C764.661 167.247 775.77 167.247 781.403 163.022C793.451 154.104 805.968 115.457 796.893 115.457C794.076 115.457 792.199 119.213 790.634 127.192C787.036 147.219 774.988 158.641 769.512 147.063C766.226 140.335 765.757 113.423 768.729 100.594C773.423 80.2534 773.58 81.818 767.321 77.1241C763.41 74.1513 759.029 72.4303 754.022 71.9609L746.668 71.335L742.6 80.4098C740.253 85.5731 735.09 99.1854 730.865 110.764L723.355 131.886L722.886 108.104L722.417 84.165L717.879 81.818C705.362 75.403 698.791 81.1922 691.437 105.444C688.621 114.832 686.117 123.124 685.804 124.063C685.491 124.845 685.178 112.172 685.178 95.5867C685.022 76.9677 684.396 65.233 683.457 64.6071C682.519 63.9813 677.981 63.199 673.444 62.7296L664.995 61.7908L664.369 91.3622C663.743 116.24 663.117 122.498 660.301 131.26C654.199 149.566 646.376 155.199 641.838 144.403C639.178 137.988 638.865 114.362 641.369 105.287C642.933 99.6548 642.777 98.8724 639.178 95.8997C635.893 93.2398 635.267 90.8928 634.328 80.4098C633.076 66.4847 630.729 60.5391 625.253 58.1922C608.825 50.5255 606.008 49.7432 597.872 49.7432C589.423 49.7432 588.641 50.0561 582.539 56.6275ZM613.049 71.6479C618.212 74.4643 621.655 92.1446 617.743 96.0561C616.961 96.8384 615.396 104.974 614.614 113.893C612.423 135.172 608.981 147.219 603.505 153.165C597.716 159.267 591.301 158.954 588.172 152.383C582.852 141.117 583.165 109.355 588.797 89.7976C593.491 73.9949 603.348 66.4847 613.049 71.6479ZM125.824 61.9473C124.573 64.1377 121.287 138.301 122.069 147.063C123.164 157.389 126.607 160.832 135.681 160.832C139.593 160.832 143.661 160.206 144.6 159.58C145.695 158.954 147.573 152.539 148.981 145.185C151.954 130.634 156.647 115.301 160.09 109.199C162.124 105.6 162.28 107.009 162.437 124.063C162.437 144.872 164.627 152.07 171.824 155.825C176.988 158.485 186.845 157.233 192.477 153.009C197.171 149.566 197.171 149.566 199.362 152.696C204.369 159.893 225.96 164.117 241.137 160.832C252.559 158.485 259.443 153.009 259.443 146.124C259.443 139.396 257.096 136.423 240.824 123.281C224.552 110.138 221.892 106.696 221.892 99.0289C221.892 87.7636 235.818 81.0357 243.954 88.233C247.709 91.6752 250.994 90.8929 255.532 85.5731C258.818 81.6616 259.443 79.3146 259.13 74.1513C258.661 68.8316 257.879 67.4234 253.967 65.5459C245.205 61.3214 216.573 68.9881 206.403 78.3758C198.266 85.886 196.389 97.4643 201.552 107.478C203.899 112.328 204.212 113.736 202.491 114.362C201.396 114.832 199.988 118.274 199.362 121.872C196.858 137.675 188.566 148.471 182.933 142.995C180.899 140.804 180.43 136.111 180.117 114.832C179.96 95.2738 179.334 88.0765 177.457 84.4779C174.797 79.3146 168.695 76.9677 164.001 79.4711C160.09 81.5051 153.831 92.301 148.198 106.539L143.817 117.804L143.661 92.4575C143.661 67.8928 143.505 66.9541 140.219 64.7636C135.368 61.7908 126.919 60.2262 125.824 61.9473ZM230.498 136.267C234.253 139.553 237.539 143.464 238.008 145.185C240.355 153.947 227.525 156.451 217.511 149.097C214.226 146.75 209.845 143.621 207.341 142.213C204.681 140.648 203.43 138.927 204.056 137.362C204.525 136.111 205.777 131.104 206.715 126.253L208.437 117.335L216.26 123.906C220.484 127.349 226.899 132.981 230.498 136.267Z" fill="black"/>
</svg>
