<svg width="186" height="81" viewBox="0 0 186 81" fill="none" xmlns="http://www.w3.org/2000/svg">
<path d="M0.199219 18.3036C0.711219 18.3036 1.60722 18.1756 3.01522 17.9196C4.29522 17.6636 5.70322 17.0236 7.11122 15.8716C8.51922 14.7196 9.79922 12.9276 10.8232 10.6236C11.8472 8.31958 12.4872 4.99158 12.4872 0.767578H21.4472C21.4472 5.88757 20.4232 9.85558 18.3752 12.6716C16.3272 15.4876 13.2552 17.2796 9.15922 18.3036H28.3592V19.1996H17.2232V56.1916C17.2232 57.7276 17.2232 59.6476 17.4792 61.8236C17.6072 63.9996 17.9912 66.1756 18.5032 68.2236C19.0152 70.2716 19.9112 72.1916 20.9352 73.8556C21.9592 75.6476 23.4952 76.7996 25.2872 77.3116C27.0792 77.9516 28.7432 77.9516 30.5352 77.3116C32.1992 76.7996 33.7352 75.7756 35.1432 74.4956C36.5512 73.2156 37.8312 71.8076 38.9832 70.1436C40.0072 68.6076 40.9032 67.0716 41.6712 65.5356C42.1832 64.3836 42.5672 63.1036 43.0792 61.8236C43.5912 60.5436 43.9752 59.1356 44.4872 57.5996H45.6392C45.1272 59.1356 44.7432 60.6716 44.2312 62.0796C43.7192 63.4876 43.2072 64.7676 42.6952 65.9196C41.9272 67.7116 40.9032 69.5036 39.7512 71.1676C38.5992 72.9596 37.3192 74.4956 35.9112 75.9036C34.3752 77.3116 32.8392 78.4636 31.0472 79.2316C29.2552 80.1276 27.2072 80.5116 25.1592 80.5116C21.5752 80.5116 18.7592 79.8716 16.5832 78.3356C14.4072 76.9276 12.7432 75.0076 11.4632 72.7036C10.1832 70.3996 9.41522 67.8396 8.90322 64.8956C8.39122 62.0796 8.26322 59.1356 8.26322 56.1916V27.0076C8.26322 24.9596 7.49522 23.0396 6.08722 21.5036C4.55122 19.9676 2.63122 19.1996 0.199219 19.1996V18.3036Z" fill="black"/>
<path d="M37.1992 18.3036H48.9752V51.4556C49.4872 47.6156 50.1272 44.0316 51.0232 40.8316C51.9192 37.7596 52.9432 34.9436 54.0952 32.3836C54.8632 30.5916 55.8872 28.9276 57.0392 27.1356C58.0632 25.4716 59.3432 23.9356 60.8792 22.5276C62.4152 21.1196 63.9512 19.9676 65.7432 19.0716C67.5352 18.3036 69.4552 17.7916 71.6312 17.7916C75.0872 17.7916 77.9032 18.5596 80.0792 19.9676C82.2552 21.5036 83.9192 23.2956 85.1992 25.5996C86.4792 27.9036 87.2472 30.5916 87.7592 33.4076C88.2712 36.3516 88.5272 39.2956 88.5272 42.1116V68.9916C88.5272 71.1676 88.5272 72.8316 88.7832 74.1116C89.0392 75.3916 89.2952 76.4156 89.6792 77.1836C89.9352 77.9516 90.3192 78.3356 90.7032 78.5916C90.9592 78.8476 91.2152 78.8476 91.4712 78.8476V79.9996H76.6232V78.8476C76.7512 78.8476 77.0072 78.8476 77.3912 78.5916C77.6472 78.3356 78.0312 77.9516 78.2872 77.1836C78.5432 76.4156 78.9272 75.3916 79.1832 74.1116C79.4392 72.8316 79.5672 71.1676 79.5672 68.9916V42.1116C79.5672 40.5756 79.4392 38.7836 79.3112 36.6076C79.0552 34.4316 78.6712 32.2556 78.1592 30.2076C77.6472 28.1596 76.7512 26.2396 75.7272 24.4476C74.7032 22.7836 73.2952 21.6316 71.5032 20.9916C69.7112 20.4796 67.9192 20.4796 66.2552 21.1196C64.4632 21.7596 62.9272 22.6556 61.5192 23.9356C60.1112 25.2156 58.8312 26.7516 57.8072 28.2876C56.6552 29.9516 55.7592 31.4876 55.1192 32.8956C53.1992 36.9916 51.6632 42.1116 50.6392 47.9996C49.4872 53.8876 48.9752 60.9276 48.9752 68.9916C48.9752 71.1676 48.9752 72.8316 49.2312 74.1116C49.4872 75.3916 49.7432 76.4156 50.1272 77.1836C50.3832 77.9516 50.7672 78.3356 51.1512 78.5916C51.4072 78.8476 51.6632 78.8476 51.9192 78.8476V79.9996H37.1992V78.8476C37.3272 78.8476 37.5832 78.8476 37.9672 78.5916C38.2232 78.3356 38.6072 77.9516 38.8632 77.1836C39.1192 76.4156 39.5032 75.3916 39.7592 74.1116C40.0152 72.8316 40.1432 71.1676 40.1432 68.9916V29.3116C40.1432 27.2636 40.0152 25.5996 39.7592 24.3196C39.5032 23.0396 39.1192 22.0156 38.8632 21.2476C38.6072 20.6076 38.2232 20.0956 37.9672 19.8396C37.5832 19.5836 37.3272 19.4556 37.1992 19.4556V18.3036Z" fill="black"/>
<path d="M182.079 42.1116V68.9916C182.079 71.1676 182.079 72.8316 182.335 74.1116C182.591 75.3916 182.847 76.4156 183.231 77.1836C183.487 77.9516 183.871 78.3356 184.255 78.5916C184.511 78.8476 184.767 78.8476 185.023 78.8476V79.9996H170.175V78.8476C170.303 78.8476 170.559 78.8476 170.943 78.5916C171.199 78.3356 171.583 77.9516 171.839 77.1836C172.095 76.4156 172.479 75.3916 172.735 74.1116C172.991 72.8316 173.119 71.1676 173.119 68.9916V42.1116C173.119 40.5756 172.991 38.7836 172.863 36.6076C172.607 34.4316 172.223 32.2556 171.711 30.2076C171.199 28.1596 170.303 26.2396 169.279 24.4476C168.255 22.7836 166.847 21.6316 165.055 20.9916C163.263 20.4796 161.471 20.4796 159.807 21.1196C158.015 21.7596 156.479 22.6556 155.071 23.9356C153.663 25.2156 152.383 26.7516 151.359 28.2876C150.207 29.9516 149.311 31.4876 148.671 32.8956C146.751 36.9916 145.215 42.1116 144.191 47.9996C143.039 53.8876 142.527 60.9276 142.527 68.9916C142.527 71.1676 142.527 72.8316 142.783 74.1116C143.039 75.3916 143.295 76.4156 143.679 77.1836C143.935 77.9516 144.319 78.3356 144.703 78.5916C144.959 78.8476 145.215 78.8476 145.471 78.8476V79.9996H130.623V78.8476C130.751 78.8476 131.007 78.8476 131.391 78.5916C131.647 78.3356 132.031 77.9516 132.287 77.1836C132.543 76.4156 132.927 75.3916 133.183 74.1116C133.439 72.8316 133.567 71.1676 133.567 68.9916V42.1116C133.567 40.5756 133.439 38.7836 133.311 36.6076C133.055 34.4316 132.671 32.2556 132.159 30.2076C131.647 28.1596 130.751 26.2396 129.727 24.4476C128.703 22.7836 127.295 21.6316 125.503 20.9916C123.711 20.4796 121.919 20.4796 120.255 21.1196C118.463 21.7596 116.927 22.6556 115.519 23.9356C114.111 25.2156 112.831 26.7516 111.807 28.2876C110.655 29.9516 109.759 31.4876 109.119 32.8956C107.199 36.9916 105.663 42.1116 104.639 47.9996C103.487 53.8876 102.975 60.9276 102.975 68.9916C102.975 71.1676 102.975 72.8316 103.231 74.1116C103.487 75.3916 103.743 76.4156 104.127 77.1836C104.383 77.9516 104.767 78.3356 105.151 78.5916C105.407 78.8476 105.663 78.8476 105.919 78.8476V79.9996H91.1992V78.8476C91.3272 78.8476 91.5832 78.8476 91.9672 78.5916C92.2232 78.3356 92.6072 77.9516 92.8632 77.1836C93.1192 76.4156 93.5032 75.3916 93.7592 74.1116C94.0152 72.8316 94.1432 71.1676 94.1432 68.9916V29.3116C94.1432 27.2636 94.0152 25.5996 93.7592 24.3196C93.5032 23.0396 93.1192 22.0156 92.8632 21.2476C92.6072 20.6076 92.2232 20.0956 91.9672 19.8396C91.5832 19.5836 91.3272 19.4556 91.1992 19.4556V18.3036H102.975V51.4556C103.487 47.6156 104.255 44.0316 105.151 40.8316C105.919 37.7596 106.943 34.9436 108.095 32.3836C108.863 30.5916 109.887 28.9276 111.039 27.1356C112.063 25.4716 113.343 23.9356 114.879 22.5276C116.415 21.1196 117.951 19.9676 119.743 19.0716C121.535 18.3036 123.455 17.7916 125.631 17.7916C129.087 17.7916 131.903 18.5596 134.207 19.9676C136.383 21.5036 138.047 23.2956 139.327 25.5996C140.607 27.9036 141.375 30.5916 141.887 33.4076C142.271 36.3516 142.527 39.2956 142.527 42.1116V51.4556C143.039 47.6156 143.679 44.0316 144.575 40.8316C145.343 37.7596 146.367 34.9436 147.647 32.3836C148.415 30.5916 149.311 28.9276 150.463 27.1356C151.615 25.4716 152.895 23.9356 154.431 22.5276C155.839 21.1196 157.503 19.9676 159.295 19.0716C161.087 18.3036 163.007 17.7916 165.183 17.7916C168.639 17.7916 171.455 18.5596 173.631 19.9676C175.807 21.5036 177.471 23.2956 178.751 25.5996C180.031 27.9036 180.799 30.5916 181.311 33.4076C181.823 36.3516 182.079 39.2956 182.079 42.1116Z" fill="black"/>
</svg>
