<svg width="601" height="133" viewBox="0 0 601 133" fill="none" xmlns="http://www.w3.org/2000/svg">
<path d="M203.7 34.8998C203.7 27.9998 198.1 22.4998 191.3 22.4998H181.6V1.2998H167.8V110.7H181.6V94.6998V94.7998V39.9998C181.6 35.4998 183.3 35.0998 185.9 35.0998C188.5 35.0998 190.2 35.4998 190.2 39.9998V110.7H203.7V34.8998Z" fill="black"/>
<path d="M292.1 94.0006C292.1 98.5006 290.5 98.9006 288.1 98.9006C285.7 98.9006 284.1 98.5006 284.1 94.0006V41.0006C284.1 36.5006 285.7 36.1006 288.1 36.1006C290.6 36.1006 292.1 36.4006 292.1 41.0006V94.0006ZM288 21.6006C278.1 21.6006 270 29.7006 270 39.6006V93.7006C270 103.601 278.1 111.701 288 111.701C297.9 111.701 306 103.601 306 93.7006V39.6006C306 29.7006 297.9 21.6006 288 21.6006Z" fill="black"/>
<path d="M599.2 22.5H586.9V94.4C586.9 95.2 586.8 95.8 586.7 96.4V96.9H586.6C586 99.1 584.6 99.3 582.6 99.3C580.6 99.3 579.2 99.1 578.6 96.9H578.4V96C578.3 95.5 578.3 95 578.3 94.4V22.5H564.6V98.3C564.6 105.2 570.2 110.7 577 110.7H586.7V131.6H600.5V22.5H599.2Z" fill="black"/>
<path d="M503.1 93.7998C503.1 97.0998 502.3 98.1998 500.9 98.4998C500.3 98.7998 499.4 98.8998 498.5 98.8998C496.1 98.8998 494.5 98.4998 494.5 93.9998V40.9998C494.5 37.6998 495.3 36.5998 496.7 36.2998C497.3 35.9998 498.2 35.8998 499.1 35.8998C501.6 35.8998 503.1 36.1998 503.1 40.7998V93.7998ZM514.9 1.2998H502.5V22.4998H492.8C485.9 22.4998 480.4 28.0998 480.4 34.8998V98.1998C480.4 105.1 486 110.6 492.8 110.6H516.3V1.2998H514.9Z" fill="black"/>
<path d="M461.6 94.0006C461.6 98.5006 459.9 98.9006 457.3 98.9006C454.7 98.9006 453 98.5006 453 94.0006V41.0006C453 36.5006 454.7 36.1006 457.3 36.1006C459.9 36.1006 461.6 36.4006 461.6 41.0006V94.0006ZM457.3 21.6006C447.4 21.6006 439.3 29.7006 439.3 39.6006V93.7006C439.3 103.601 447.4 111.701 457.3 111.701C467.2 111.701 475.3 103.601 475.3 93.7006V39.6006C475.3 29.7006 467.2 21.6006 457.3 21.6006Z" fill="black"/>
<path d="M261.1 4.0002C258.7 1.8002 255.7 0.500201 252.5 0.300201L251 0.200195V110.6H264.8V12.7002C264.8 9.50021 263.5 6.2002 261.1 4.0002Z" fill="black"/>
<path d="M443.3 1.2998H408.8V15.0998H419.9V110.7H433.7V15.0998H444.8V1.2998H443.3Z" fill="black"/>
<path d="M232.1 94.0006C232.1 98.5006 230.5 98.9006 228.1 98.9006C225.6 98.9006 224.1 98.5006 224.1 94.0006V41.0006C224.1 36.5006 225.7 36.1006 228.1 36.1006C230.5 36.1006 232.1 36.4006 232.1 41.0006V94.0006ZM228 21.6006C218.1 21.6006 210 29.7006 210 39.6006V93.7006C210 103.601 218.1 111.701 228 111.701C237.9 111.701 246 103.601 246 93.7006V39.6006C246 29.7006 237.9 21.6006 228 21.6006Z" fill="black"/>
<path d="M77.2002 47.4006V39.6006C77.2002 29.7006 69.1002 21.6006 59.2002 21.6006C49.3002 21.6006 41.2002 29.7006 41.2002 39.6006V61.1006C41.2002 68.0006 46.8002 73.5006 53.6002 73.5006H63.3002V81.3006C63.3002 81.6006 63.3002 81.9006 63.3002 82.3006V95.5006C63.3002 100.001 61.7002 100.401 59.1002 100.401C56.6002 100.401 54.9002 100.001 54.9002 95.5006V85.9006H41.2002V93.7006C41.2002 103.601 49.3002 111.701 59.2002 111.701C69.1002 111.701 77.2002 103.601 77.2002 93.7006V72.2006C77.2002 65.3006 71.6002 59.8006 64.8002 59.8006H55.0002V41.4006H55.1002V41.2006C55.1002 36.7006 56.7002 36.3006 59.2002 36.3006C61.7002 36.3006 63.3002 36.7006 63.3002 41.2006V41.4006V47.5006H77.2002" fill="black"/>
<path d="M22.7 45.3998C22.7 49.9998 21.1 50.2998 18.6 50.2998C16.1 50.2998 14.5 49.8998 14.5 45.3998V45.2998V19.9998V19.6998C14.5 15.1998 16.1 14.7998 18.6 14.7998C21.1 14.7998 22.7 15.0998 22.7 19.6998V19.9998V45.3998ZM24 1.2998H0.5V110.7H14.3V62.8998H24C30.9 62.8998 36.4 57.2998 36.4 50.4998V13.6998C36.5 6.89983 30.9 1.2998 24 1.2998Z" fill="black"/>
<path d="M334.2 90.7006L334.1 93.7006C334.1 98.2006 332.4 98.6006 329.8 98.6006C327.2 98.6006 325.5 98.3006 325.5 93.7006V40.7006C325.5 36.2006 327.2 35.8006 329.8 35.8006C332.4 35.8006 334.1 36.1006 334.1 40.7006V43.9006H334.2V90.7006ZM330.1 21.6006C320.2 21.6006 312.1 29.7006 312.1 39.6006V98.3006C312.1 105.201 317.7 110.701 324.5 110.701H334.2V118.701H314.5V132.501H335.6C342.5 132.501 348 126.901 348 120.101V39.6006C348.1 29.7006 340 21.6006 330.1 21.6006Z" fill="black"/>
<path d="M143.5 98.4006C140.9 98.4006 139.3 98.0006 139.3 93.5006V40.5006C139.3 36.0006 140.9 35.6006 143.5 35.6006C146.1 35.6006 147.7 36.0006 147.7 40.5006V47.4006H161.5V39.6006C161.5 29.7006 153.4 21.6006 143.5 21.6006C133.6 21.6006 125.5 29.7006 125.5 39.6006V93.7006C125.5 103.601 133.6 111.701 143.5 111.701C153.4 111.701 161.5 103.601 161.5 93.7006V85.9006H147.7V93.5006C147.8 98.0006 146.1 98.4006 143.5 98.4006Z" fill="black"/>
<path d="M545 93.6C545 94.8 544.9 95.7 544.6 96.4V96.9H544.4C543.7 98.3 542.3 98.5 540.5 98.5C538.7 98.5 537.4 98.3 536.7 96.9H536.3V95.8C536.2 95.2 536.1 94.4 536.1 93.5V61.6C536.1 60.7 536.2 59.9 536.3 59.3V58.8H536.4C537 56.9 538.5 56.7 540.5 56.7C543.2 56.7 544.9 57 544.9 61.6V93.6H545ZM546.1 22.5H525V36.3H544.7V45H535C528.1 45 522.6 50.6 522.6 57.4V98.2C522.6 105.1 528.2 110.6 535 110.6H558.5V34.8C558.5 28.1 552.9 22.5 546.1 22.5Z" fill="black"/>
<path d="M117.9 22.5H105.6V94.4C105.6 95.2 105.5 95.8 105.5 96.4V96.9H105.4C104.8 99.1 103.4 99.3 101.4 99.3C99.4004 99.3 98.0004 99.1 97.4004 96.9H97.2004V96C97.1004 95.5 97.1004 95 97.1004 94.4V22.5H83.4004V98.3C83.4004 105.2 89.0004 110.7 95.8004 110.7H105.5V131.6H119.3V22.5H117.9Z" fill="black"/>
<path d="M387.7 22.5H375.4V94.4C375.4 95.2 375.3 95.8 375.2 96.4V96.9H375.1C374.5 99.1 373.1 99.3 371.1 99.3C369.1 99.3 367.7 99.1 367.1 96.9H366.9V96C366.8 95.5 366.8 95 366.8 94.4V22.5H353.1V98.3C353.1 105.2 358.7 110.7 365.5 110.7H375.2V131.6H389V22.5H387.7Z" fill="black"/>
<path d="M203.7 34.8998C203.7 27.9998 198.1 22.4998 191.3 22.4998H181.6V1.2998H167.8V110.7H181.6V94.6998V94.7998V39.9998C181.6 35.4998 183.3 35.0998 185.9 35.0998C188.5 35.0998 190.2 35.4998 190.2 39.9998V110.7H203.7V34.8998Z" fill="black"/>
<path d="M292.1 94.0006C292.1 98.5006 290.5 98.9006 288.1 98.9006C285.7 98.9006 284.1 98.5006 284.1 94.0006V41.0006C284.1 36.5006 285.7 36.1006 288.1 36.1006C290.6 36.1006 292.1 36.4006 292.1 41.0006V94.0006ZM288 21.6006C278.1 21.6006 270 29.7006 270 39.6006V93.7006C270 103.601 278.1 111.701 288 111.701C297.9 111.701 306 103.601 306 93.7006V39.6006C306 29.7006 297.9 21.6006 288 21.6006Z" fill="black"/>
<path d="M599.2 22.5H586.9V94.4C586.9 95.2 586.8 95.8 586.7 96.4V96.9H586.6C586 99.1 584.6 99.3 582.6 99.3C580.6 99.3 579.2 99.1 578.6 96.9H578.4V96C578.3 95.5 578.3 95 578.3 94.4V22.5H564.6V98.3C564.6 105.2 570.2 110.7 577 110.7H586.7V131.6H600.5V22.5H599.2Z" fill="black"/>
<path d="M503.1 93.7998C503.1 97.0998 502.3 98.1998 500.9 98.4998C500.3 98.7998 499.4 98.8998 498.5 98.8998C496.1 98.8998 494.5 98.4998 494.5 93.9998V40.9998C494.5 37.6998 495.3 36.5998 496.7 36.2998C497.3 35.9998 498.2 35.8998 499.1 35.8998C501.6 35.8998 503.1 36.1998 503.1 40.7998V93.7998ZM514.9 1.2998H502.5V22.4998H492.8C485.9 22.4998 480.4 28.0998 480.4 34.8998V98.1998C480.4 105.1 486 110.6 492.8 110.6H516.3V1.2998H514.9Z" fill="black"/>
<path d="M461.6 94.0006C461.6 98.5006 459.9 98.9006 457.3 98.9006C454.7 98.9006 453 98.5006 453 94.0006V41.0006C453 36.5006 454.7 36.1006 457.3 36.1006C459.9 36.1006 461.6 36.4006 461.6 41.0006V94.0006ZM457.3 21.6006C447.4 21.6006 439.3 29.7006 439.3 39.6006V93.7006C439.3 103.601 447.4 111.701 457.3 111.701C467.2 111.701 475.3 103.601 475.3 93.7006V39.6006C475.3 29.7006 467.2 21.6006 457.3 21.6006Z" fill="black"/>
<path d="M261.1 4.0002C258.7 1.8002 255.7 0.500201 252.5 0.300201L251 0.200195V110.6H264.8V12.7002C264.8 9.50021 263.5 6.2002 261.1 4.0002Z" fill="black"/>
<path d="M443.3 1.2998H408.8V15.0998H419.9V110.7H433.7V15.0998H444.8V1.2998H443.3Z" fill="black"/>
<path d="M232.1 94.0006C232.1 98.5006 230.5 98.9006 228.1 98.9006C225.6 98.9006 224.1 98.5006 224.1 94.0006V41.0006C224.1 36.5006 225.7 36.1006 228.1 36.1006C230.5 36.1006 232.1 36.4006 232.1 41.0006V94.0006ZM228 21.6006C218.1 21.6006 210 29.7006 210 39.6006V93.7006C210 103.601 218.1 111.701 228 111.701C237.9 111.701 246 103.601 246 93.7006V39.6006C246 29.7006 237.9 21.6006 228 21.6006Z" fill="black"/>
<path d="M77.2002 47.4006V39.6006C77.2002 29.7006 69.1002 21.6006 59.2002 21.6006C49.3002 21.6006 41.2002 29.7006 41.2002 39.6006V61.1006C41.2002 68.0006 46.8002 73.5006 53.6002 73.5006H63.3002V81.3006C63.3002 81.6006 63.3002 81.9006 63.3002 82.3006V95.5006C63.3002 100.001 61.7002 100.401 59.1002 100.401C56.6002 100.401 54.9002 100.001 54.9002 95.5006V85.9006H41.2002V93.7006C41.2002 103.601 49.3002 111.701 59.2002 111.701C69.1002 111.701 77.2002 103.601 77.2002 93.7006V72.2006C77.2002 65.3006 71.6002 59.8006 64.8002 59.8006H55.0002V41.4006H55.1002V41.2006C55.1002 36.7006 56.7002 36.3006 59.2002 36.3006C61.7002 36.3006 63.3002 36.7006 63.3002 41.2006V41.4006V47.5006H77.2002" fill="black"/>
<path d="M22.7 45.3998C22.7 49.9998 21.1 50.2998 18.6 50.2998C16.1 50.2998 14.5 49.8998 14.5 45.3998V45.2998V19.9998V19.6998C14.5 15.1998 16.1 14.7998 18.6 14.7998C21.1 14.7998 22.7 15.0998 22.7 19.6998V19.9998V45.3998ZM24 1.2998H0.5V110.7H14.3V62.8998H24C30.9 62.8998 36.4 57.2998 36.4 50.4998V13.6998C36.5 6.89983 30.9 1.2998 24 1.2998Z" fill="black"/>
<path d="M334.2 90.7006L334.1 93.7006C334.1 98.2006 332.4 98.6006 329.8 98.6006C327.2 98.6006 325.5 98.3006 325.5 93.7006V40.7006C325.5 36.2006 327.2 35.8006 329.8 35.8006C332.4 35.8006 334.1 36.1006 334.1 40.7006V43.9006H334.2V90.7006ZM330.1 21.6006C320.2 21.6006 312.1 29.7006 312.1 39.6006V98.3006C312.1 105.201 317.7 110.701 324.5 110.701H334.2V118.701H314.5V132.501H335.6C342.5 132.501 348 126.901 348 120.101V39.6006C348.1 29.7006 340 21.6006 330.1 21.6006Z" fill="black"/>
<path d="M143.5 98.4006C140.9 98.4006 139.3 98.0006 139.3 93.5006V40.5006C139.3 36.0006 140.9 35.6006 143.5 35.6006C146.1 35.6006 147.7 36.0006 147.7 40.5006V47.4006H161.5V39.6006C161.5 29.7006 153.4 21.6006 143.5 21.6006C133.6 21.6006 125.5 29.7006 125.5 39.6006V93.7006C125.5 103.601 133.6 111.701 143.5 111.701C153.4 111.701 161.5 103.601 161.5 93.7006V85.9006H147.7V93.5006C147.8 98.0006 146.1 98.4006 143.5 98.4006Z" fill="black"/>
<path d="M545 93.6C545 94.8 544.9 95.7 544.6 96.4V96.9H544.4C543.7 98.3 542.3 98.5 540.5 98.5C538.7 98.5 537.4 98.3 536.7 96.9H536.3V95.8C536.2 95.2 536.1 94.4 536.1 93.5V61.6C536.1 60.7 536.2 59.9 536.3 59.3V58.8H536.4C537 56.9 538.5 56.7 540.5 56.7C543.2 56.7 544.9 57 544.9 61.6V93.6H545ZM546.1 22.5H525V36.3H544.7V45H535C528.1 45 522.6 50.6 522.6 57.4V98.2C522.6 105.1 528.2 110.6 535 110.6H558.5V34.8C558.5 28.1 552.9 22.5 546.1 22.5Z" fill="black"/>
<path d="M117.9 22.5H105.6V94.4C105.6 95.2 105.5 95.8 105.5 96.4V96.9H105.4C104.8 99.1 103.4 99.3 101.4 99.3C99.4004 99.3 98.0004 99.1 97.4004 96.9H97.2004V96C97.1004 95.5 97.1004 95 97.1004 94.4V22.5H83.4004V98.3C83.4004 105.2 89.0004 110.7 95.8004 110.7H105.5V131.6H119.3V22.5H117.9Z" fill="black"/>
<path d="M387.7 22.5H375.4V94.4C375.4 95.2 375.3 95.8 375.2 96.4V96.9H375.1C374.5 99.1 373.1 99.3 371.1 99.3C369.1 99.3 367.7 99.1 367.1 96.9H366.9V96C366.8 95.5 366.8 95 366.8 94.4V22.5H353.1V98.3C353.1 105.2 358.7 110.7 365.5 110.7H375.2V131.6H389V22.5H387.7Z" fill="black"/>
</svg>
