<svg width="101" height="101" viewBox="0 0 101 101" fill="none" xmlns="http://www.w3.org/2000/svg">
<path d="M78.8115 54.9463C82.6597 54.9463 84.5837 56.8704 84.5837 60.7186V76.3678C84.5837 80.2159 82.6597 82.14 78.8115 82.14H63.9319C60.0838 82.14 58.1597 80.2159 58.1597 76.3678V60.7186C58.1597 51.7395 59.1003 43.9149 60.9817 37.2448C62.9485 30.4891 66.7539 24.5886 72.3979 19.5432C74.2792 17.9185 75.8612 17.7047 77.144 18.9019L82.9162 24.2893C84.1989 25.4865 83.8996 26.9403 82.0183 28.6506C79.1108 31.216 76.7164 34.9359 74.8351 39.8102C73.0392 44.5991 72.1413 49.6444 72.1413 54.9463H78.8115ZM36.4817 54.9463C40.3299 54.9463 42.2539 56.8704 42.2539 60.7186V76.3678C42.2539 80.2159 40.3299 82.14 36.4817 82.14H21.6021C17.754 82.14 15.8299 80.2159 15.8299 76.3678V60.7186C15.8299 51.7395 16.7706 43.9149 18.6519 37.2448C20.6187 30.4891 24.4241 24.5886 30.0681 19.5432C31.9494 17.9185 33.5314 17.7047 34.8142 18.9019L40.5864 24.2893C41.8691 25.4865 41.5698 26.9403 39.6885 28.6506C36.781 31.216 34.3866 34.9359 32.5053 39.8102C30.7095 44.5991 29.8116 49.6444 29.8116 54.9463H36.4817Z" fill="black"/>
</svg>
