<svg width="606" height="140" viewBox="0 0 606 140" fill="none" xmlns="http://www.w3.org/2000/svg">
<path d="M432.464 139.143C463.149 139.143 488.025 113.887 488.025 82.7317C488.025 51.5784 463.149 26.3164 432.464 26.3164H424.09C454.776 26.3164 479.653 51.5784 479.653 82.7317C479.653 113.887 454.776 139.143 424.09 139.143H432.464Z" fill="#FF004F"/>
<path d="M423.336 26.3164H414.965C384.28 26.3164 359.398 51.5784 359.398 82.7317C359.398 113.887 384.28 139.143 414.965 139.143H423.336C392.646 139.143 367.769 113.887 367.769 82.7317C367.769 51.5784 392.646 26.3164 423.336 26.3164Z" fill="#00F2EA"/>
<path d="M185.87 0.818159V64.9499L217.831 32.4956H256.645L216.306 72.6821L261.213 139.14H226.967L195.765 93.5432L185.87 102.824V138.369H153.902V0.818159H185.87ZM530.648 0.818159V64.9499L562.615 32.4956H601.429L561.091 72.6821L605.999 139.144H571.748L540.54 93.5467L530.648 102.827V138.372H498.675V0.818159H530.648ZM424.089 26.3151C454.775 26.3151 479.655 51.5772 479.655 82.7304C479.655 113.885 454.775 139.142 424.089 139.142H423.332C392.645 139.142 367.769 113.885 367.769 82.7304C367.769 51.5772 392.645 26.3151 423.332 26.3151H424.089ZM102.152 0.818159L93.0176 30.1847H66.3822V138.371H33.6471V29.4133H0.925781V0.816406H102.151L102.152 0.818159ZM370.057 0.818159L360.926 30.1847H334.29V138.371H301.555V29.4133H268.834V0.816406H370.057V0.818159ZM140.199 44.8672V138.372H108.244V44.8672H140.199ZM423.717 55.3013C408.794 55.3013 396.691 67.5763 396.691 82.7304C396.691 97.8845 408.794 110.165 423.717 110.168C438.631 110.168 450.733 97.8845 450.733 82.7304C450.733 67.5763 438.631 55.3013 423.717 55.3013ZM124.215 0.818159C133.048 0.818159 140.199 8.08573 140.199 17.0453C140.199 26.0048 133.053 33.2724 124.215 33.2724C115.388 33.2689 108.244 26.0066 108.244 17.0453C108.244 8.08573 115.388 0.818159 124.215 0.818159Z" fill="black"/>
</svg>
